<svg width="109" height="40" viewBox="0 0 109 40" fill="none" xmlns="http://www.w3.org/2000/svg">
<circle cx="20" cy="20" r="20" fill="url(#paint0_linear_9_923)"/>
<path d="M19.464 28.256C18.1556 28.256 17.0462 28.0356 16.136 27.5947C15.2258 27.1396 14.4507 26.5564 13.8107 25.8453L15.944 23.6907C16.9538 24.8284 18.1982 25.3973 19.6773 25.3973C20.4738 25.3973 21.064 25.2338 21.448 24.9067C21.832 24.5796 22.024 24.1458 22.024 23.6053C22.024 23.1929 21.9102 22.8516 21.6827 22.5813C21.4551 22.2969 20.9929 22.1049 20.296 22.0053L18.824 21.8133C17.2453 21.6142 16.0862 21.1378 15.3467 20.384C14.6213 19.6302 14.2587 18.6276 14.2587 17.376C14.2587 16.7076 14.3867 16.096 14.6427 15.5413C14.8987 14.9867 15.2613 14.5102 15.7307 14.112C16.2142 13.7138 16.7973 13.408 17.48 13.1947C18.1769 12.9671 18.9662 12.8533 19.848 12.8533C20.9716 12.8533 21.96 13.0311 22.8133 13.3867C23.6667 13.7422 24.3991 14.2613 25.0107 14.944L22.856 17.12C22.5004 16.7076 22.0667 16.3733 21.5547 16.1173C21.0569 15.8471 20.424 15.712 19.656 15.712C18.9307 15.712 18.3902 15.84 18.0347 16.096C17.6791 16.352 17.5013 16.7076 17.5013 17.1627C17.5013 17.6747 17.6364 18.0444 17.9067 18.272C18.1911 18.4996 18.6462 18.6631 19.272 18.7627L20.744 18.9973C22.28 19.2391 23.4178 19.7156 24.1573 20.4267C24.8969 21.1236 25.2667 22.1191 25.2667 23.4133C25.2667 24.1244 25.1387 24.7787 24.8827 25.376C24.6267 25.9733 24.2498 26.4853 23.752 26.912C23.2684 27.3387 22.664 27.6729 21.9387 27.9147C21.2133 28.1422 20.3884 28.256 19.464 28.256Z" fill="white"/>
<path d="M66.381 18.298H66.324L65.355 20.236L62.771 24.929L60.244 20.255L59.237 18.165H59.18V27H56.463V13.738H59.522L62.771 19.951H62.809L66.02 13.738H69.098V27H66.381V18.298ZM76.192 27.228C75.4574 27.228 74.7987 27.1077 74.216 26.867C73.646 26.6263 73.1584 26.278 72.753 25.822C72.3604 25.366 72.0564 24.815 71.841 24.169C71.6257 23.523 71.518 22.801 71.518 22.003C71.518 21.205 71.6257 20.483 71.841 19.837C72.0564 19.191 72.3604 18.6463 72.753 18.203C73.1584 17.747 73.646 17.3987 74.216 17.158C74.7987 16.9173 75.4574 16.797 76.192 16.797C76.9267 16.797 77.579 16.9173 78.149 17.158C78.7317 17.3987 79.2194 17.747 79.612 18.203C80.0174 18.6463 80.3277 19.191 80.543 19.837C80.7584 20.483 80.866 21.205 80.866 22.003C80.866 22.801 80.7584 23.523 80.543 24.169C80.3277 24.815 80.0174 25.366 79.612 25.822C79.2194 26.278 78.7317 26.6263 78.149 26.867C77.579 27.1077 76.9267 27.228 76.192 27.228ZM76.192 25.005C76.7494 25.005 77.18 24.834 77.484 24.492C77.788 24.15 77.94 23.6623 77.94 23.029V20.996C77.94 20.3627 77.788 19.875 77.484 19.533C77.18 19.191 76.7494 19.02 76.192 19.02C75.6347 19.02 75.204 19.191 74.9 19.533C74.596 19.875 74.444 20.3627 74.444 20.996V23.029C74.444 23.6623 74.596 24.15 74.9 24.492C75.204 24.834 75.6347 25.005 76.192 25.005ZM85.1159 27L81.8479 17.025H84.6219L85.8569 21.053L86.7879 24.663H86.9399L87.8709 21.053L89.0679 17.025H91.7279L88.4599 27H85.1159ZM94.8842 15.961C94.3142 15.961 93.8962 15.8343 93.6302 15.581C93.3769 15.315 93.2502 14.9793 93.2502 14.574V14.156C93.2502 13.7507 93.3769 13.4213 93.6302 13.168C93.8962 12.902 94.3142 12.769 94.8842 12.769C95.4542 12.769 95.8659 12.902 96.1192 13.168C96.3852 13.4213 96.5182 13.7507 96.5182 14.156V14.574C96.5182 14.9793 96.3852 15.315 96.1192 15.581C95.8659 15.8343 95.4542 15.961 94.8842 15.961ZM93.4782 17.025H96.2902V27H93.4782V17.025ZM103.342 27.228C102.582 27.228 101.905 27.1077 101.309 26.867C100.714 26.6137 100.207 26.2653 99.7894 25.822C99.384 25.366 99.0737 24.815 98.8584 24.169C98.6557 23.523 98.5544 22.801 98.5544 22.003C98.5544 21.2177 98.6557 20.5083 98.8584 19.875C99.061 19.229 99.3587 18.678 99.7514 18.222C100.157 17.766 100.651 17.4177 101.233 17.177C101.816 16.9237 102.481 16.797 103.228 16.797C104.052 16.797 104.755 16.9363 105.337 17.215C105.933 17.4937 106.414 17.8673 106.781 18.336C107.161 18.8047 107.434 19.3493 107.598 19.97C107.776 20.578 107.864 21.2177 107.864 21.889V22.725H101.461V22.877C101.461 23.5357 101.639 24.0613 101.993 24.454C102.348 24.834 102.905 25.024 103.665 25.024C104.248 25.024 104.723 24.91 105.09 24.682C105.458 24.4413 105.8 24.1563 106.116 23.827L107.522 25.575C107.079 26.0943 106.496 26.4997 105.774 26.791C105.065 27.0823 104.254 27.228 103.342 27.228ZM103.285 18.868C102.715 18.868 102.266 19.058 101.936 19.438C101.62 19.8053 101.461 20.2993 101.461 20.92V21.072H104.957V20.901C104.957 20.293 104.818 19.8053 104.539 19.438C104.273 19.058 103.855 18.868 103.285 18.868Z" fill="#111155"/>
<defs>
<linearGradient id="paint0_linear_9_923" x1="40" y1="0" x2="0" y2="40" gradientUnits="userSpaceOnUse">
<stop stop-color="#090932"/>
<stop offset="1" stop-color="#5555F8"/>
</linearGradient>
</defs>
</svg>
